<svg width="24" height="28" viewBox="0 0 24 28" fill="none" xmlns="http://www.w3.org/2000/svg">
<g clip-path="url(#clip0)">
<path d="M16 14C16 11.797 14.203 10 12 10C9.797 10 8 11.797 8 14C8 16.203 9.797 18 12 18C14.203 18 16 16.203 16 14ZM18.156 14C18.156 17.406 15.406 20.156 12 20.156C8.594 20.156 5.844 17.406 5.844 14C5.844 10.594 8.594 7.844 12 7.844C15.406 7.844 18.156 10.594 18.156 14ZM19.844 7.594C19.844 8.391 19.203 9.031 18.407 9.031C17.611 9.031 16.97 8.39 16.97 7.594C16.97 6.798 17.611 6.157 18.407 6.157C19.203 6.157 19.844 6.798 19.844 7.594ZM12 4.156C10.25 4.156 6.5 4.015 4.922 4.64C4.375 4.859 3.969 5.124 3.547 5.546C3.125 5.968 2.859 6.374 2.641 6.921C2.016 8.499 2.157 12.249 2.157 13.999C2.157 15.749 2.016 19.499 2.641 21.077C2.86 21.624 3.125 22.03 3.547 22.452C3.969 22.874 4.375 23.14 4.922 23.358C6.5 23.983 10.25 23.842 12 23.842C13.75 23.842 17.5 23.983 19.078 23.358C19.625 23.139 20.031 22.874 20.453 22.452C20.875 22.03 21.141 21.624 21.359 21.077C21.984 19.499 21.843 15.749 21.843 13.999C21.843 12.249 21.984 8.499 21.359 6.921C21.14 6.374 20.875 5.968 20.453 5.546C20.031 5.124 19.625 4.858 19.078 4.64C17.5 4.015 13.75 4.156 12 4.156V4.156ZM24 14C24 15.656 24.016 17.297 23.922 18.953C23.828 20.875 23.391 22.578 21.985 23.984C20.579 25.39 18.876 25.828 16.954 25.921C15.298 26.015 13.657 25.999 12.001 25.999C10.345 25.999 8.704 26.015 7.048 25.921C5.126 25.827 3.423 25.39 2.017 23.984C0.611 22.578 0.173 20.875 0.08 18.953C-0.014 17.297 0.00199998 15.656 0.00199998 14C0.00199998 12.344 -0.014 10.703 0.08 9.047C0.174 7.125 0.611 5.422 2.017 4.016C3.423 2.61 5.126 2.172 7.048 2.079C8.704 1.985 10.345 2.001 12.001 2.001C13.657 2.001 15.298 1.985 16.954 2.079C18.876 2.173 20.579 2.61 21.985 4.016C23.391 5.422 23.829 7.125 23.922 9.047C24.016 10.703 24 12.344 24 14Z" fill="white"/>
</g>
<defs>
<clipPath id="clip0">
<rect width="24" height="28" fill="white"/>
</clipPath>
</defs>
</svg>
